<svg width="64" height="64" viewBox="0 0 64 64" fill="none" xmlns="http://www.w3.org/2000/svg">
<path fill-rule="evenodd" clip-rule="evenodd" d="M31.9999 5.33331C17.2666 5.33331 5.33325 17.2666 5.33325 32C5.33325 43.8 12.9666 53.7666 23.5666 57.3C24.8999 57.5333 25.3999 56.7333 25.3999 56.0333C25.3999 55.4 25.3666 53.3 25.3666 51.0666C18.6666 52.3 16.9333 49.4333 16.3999 47.9333C16.0999 47.1666 14.7999 44.8 13.6666 44.1666C12.7333 43.6666 11.3999 42.4333 13.6333 42.4C15.7333 42.3666 17.2333 44.3333 17.7333 45.1333C20.1333 49.1666 23.9666 48.0333 25.4999 47.3333C25.7333 45.6 26.4333 44.4333 27.1999 43.7666C21.2666 43.1 15.0666 40.8 15.0666 30.6C15.0666 27.7 16.0999 25.3 17.7999 23.4333C17.5333 22.7666 16.5999 20.0333 18.0666 16.3666C18.0666 16.3666 20.2999 15.6666 25.3999 19.1C27.5333 18.5 29.7999 18.2 32.0666 18.2C34.3333 18.2 36.5999 18.5 38.7333 19.1C43.8333 15.6333 46.0666 16.3666 46.0666 16.3666C47.5333 20.0333 46.5999 22.7666 46.3333 23.4333C48.0333 25.3 49.0666 27.6666 49.0666 30.6C49.0666 40.8333 42.8333 43.1 36.8999 43.7666C37.8666 44.6 38.6999 46.2 38.6999 48.7C38.6999 52.2666 38.6666 55.1333 38.6666 56.0333C38.6666 56.7333 39.1666 57.5666 40.4999 57.3C51.0333 53.7666 58.6666 43.7666 58.6666 32C58.6666 17.2666 46.7333 5.33331 31.9999 5.33331Z" fill="white"/>
</svg>
