<svg width="64" height="64" viewBox="0 0 64 64" fill="none" xmlns="http://www.w3.org/2000/svg">
<path d="M34.5441 30.976L42.4294 23.0907L16.9601 8.77599C15.2721 7.86399 13.6907 7.73599 12.3041 8.73332L34.5441 30.976ZM43.7734 40.208L51.9707 35.5973C53.5707 34.7013 54.4481 33.432 54.4481 32.024C54.4481 30.6187 53.5707 29.3467 51.9734 28.4507L44.5521 24.2827L36.1974 32.6347L43.7734 40.208V40.208ZM10.9334 10.672C10.7627 11.1973 10.6667 11.784 10.6667 12.4267V51.64C10.6667 52.656 10.8907 53.5307 11.2961 54.2267L32.8881 32.632L10.9334 10.672ZM34.5441 34.2853L13.0721 55.76C13.4827 55.9173 13.9254 56 14.3921 56C15.2241 56 16.0907 55.7547 16.9734 55.264L41.6534 41.4053L34.5441 34.2853V34.2853Z" fill="white"/>
</svg>
